<!-- InvoiceGear Icon Only (for favicon/app icon) -->
<svg xmlns="http://www.w3.org/2000/svg" viewBox="0 0 64 64" width="64" height="64">
  <defs>
    <linearGradient id="iconGrad" x1="0%" y1="0%" x2="100%" y2="100%">
      <stop offset="0%" style="stop-color:#4F46E5;stop-opacity:1" />
      <stop offset="50%" style="stop-color:#6366F1;stop-opacity:1" />
      <stop offset="100%" style="stop-color:#7C3AED;stop-opacity:1" />
    </linearGradient>
  </defs>

  <!-- Background Circle -->
  <circle cx="32" cy="32" r="30" fill="white" stroke="#E5E7EB" stroke-width="1" />

  <!-- Main Gear -->
  <g transform="translate(32, 32)">
    <!-- Gear teeth - 8 teeth for clean design -->
    <path d="
      M -3,-18 L 3,-18 L 4,-14
      L 11,-11 L 14,-4 L 18,-3
      L 18,3 L 14,4
      L 11,11 L 4,14 L 3,18
      L -3,18 L -4,14
      L -11,11 L -14,4 L -18,3
      L -18,-3 L -14,-4
      L -11,-11 L -4,-14 Z"
          fill="url(#iconGrad)" />

    <!-- Center hub -->
    <circle cx="0" cy="0" r="8" fill="white" />

    <!-- Invoice lines icon in center -->
    <g>
      <rect x="-4" y="-4" width="8" height="8" fill="#4F46E5" rx="1" />
      <line x1="-2" y1="-1.5" x2="2" y2="-1.5" stroke="white" stroke-width="0.8" />
      <line x1="-2" y1="0.5" x2="2" y2="0.5" stroke="white" stroke-width="0.8" />
      <line x1="-2" y1="2.5" x2="1" y2="2.5" stroke="white" stroke-width="0.8" />
    </g>
  </g>
</svg>